<svg width="96" height="54" viewBox="0 0 96 54" fill="none" xmlns="http://www.w3.org/2000/svg">
<path d="M4.06692 28.7934H91.7687V4.06685H4.06692V28.7934ZM93.8021 32.8604H2.03346C0.91027 32.8604 0 31.9498 0 30.8269V2.0334C0 0.910204 0.91027 -6.86646e-05 2.03346 -6.86646e-05H93.8021C94.925 -6.86646e-05 95.8356 0.910204 95.8356 2.0334V30.8269C95.8356 31.9498 94.925 32.8604 93.8021 32.8604Z" fill="#1E1D1C"/>
<path d="M93.802 20.9686H2.03336V16.9017H93.802V20.9686Z" fill="#1E1D1C"/>
<path d="M93.802 25.7792H2.03336V23.7457H93.802V25.7792Z" fill="#1E1D1C"/>
<path d="M82.692 12.8187H80.6903C79.5674 12.8187 78.6569 11.9082 78.6569 10.7853C78.6569 9.66237 79.5674 8.7518 80.6903 8.7518H82.692C83.8149 8.7518 84.7254 9.66237 84.7254 10.7853C84.7254 11.9082 83.8149 12.8187 82.692 12.8187Z" fill="#1E1D1C"/>
<path d="M73.684 12.8187H71.6823C70.5591 12.8187 69.6489 11.9082 69.6489 10.7853C69.6489 9.66237 70.5591 8.7518 71.6823 8.7518H73.684C74.8072 8.7518 75.7174 9.66237 75.7174 10.7853C75.7174 11.9082 74.8072 12.8187 73.684 12.8187Z" fill="#1E1D1C"/>
<path d="M36.7644 53.5682C36.2276 53.5682 35.6917 53.3571 35.2921 52.9381C34.5171 52.1251 34.548 50.8377 35.3608 50.0631C35.8826 49.5655 35.9849 49.3199 34.9046 47.023C33.8299 44.7379 32.2059 41.2848 35.1707 37.5459C35.8681 36.6659 37.1471 36.5178 38.0276 37.2164C38.9073 37.914 39.0551 39.193 38.3571 40.073C37.0213 41.7573 37.5164 43.0209 38.5846 45.2919C39.5309 47.3037 40.9606 50.3435 38.1671 53.0068C37.7734 53.3821 37.2684 53.5682 36.7644 53.5682Z" fill="#1E1D1C"/>
<path d="M48.0367 53.5682C47.4999 53.5682 46.9638 53.3571 46.5644 52.9381C45.7894 52.1251 45.8204 50.8377 46.6331 50.0631C47.155 49.5655 47.2573 49.3199 46.1769 47.023C45.1022 44.7379 43.4779 41.2848 46.4431 37.5459C47.1404 36.6659 48.4194 36.5178 49.2997 37.2164C50.1796 37.914 50.3271 39.193 49.6295 40.073C48.2936 41.7573 48.7888 43.0209 49.857 45.2919C50.8032 47.3037 52.233 50.3435 49.4394 53.0068C49.0457 53.3821 48.5408 53.5682 48.0367 53.5682Z" fill="#1E1D1C"/>
<path d="M59.3092 53.5682C58.7724 53.5682 58.2362 53.3571 57.8369 52.9381C57.0619 52.1251 57.0928 50.8377 57.9055 50.0631C58.4274 49.5655 58.5297 49.3199 57.4494 47.023C56.3747 44.7379 54.7504 41.2848 57.7155 37.5459C58.4129 36.6659 59.6916 36.5178 60.5721 37.2164C61.4521 37.914 61.5996 39.193 60.9019 40.073C59.5661 41.7573 60.0612 43.0209 61.1294 45.2919C62.0757 47.3037 63.5055 50.3435 60.7119 53.0068C60.3182 53.3821 59.8129 53.5682 59.3092 53.5682Z" fill="#1E1D1C"/>
</svg>
