<svg width="29" height="34" viewBox="0 0 29 34" fill="none" xmlns="http://www.w3.org/2000/svg">
<path fill-rule="evenodd" clip-rule="evenodd" d="M0.51416 13.2107L14.0666 0.174267C14.3097 -0.0598335 14.6937 -0.057148 14.9336 0.176731L14.9339 0.176956L14.9377 0.180649L28.3478 13.2131L28.3518 13.2172L28.79 13.6096C28.9273 13.7325 28.9973 13.9029 28.9973 14.0739H29V33.3743C29 33.7198 28.72 34 28.3746 34H18.7713V22.2647C18.7713 21.9191 18.4913 21.639 18.1459 21.639H10.8541C10.5088 21.639 10.2288 21.9191 10.2288 22.2647V34H0.625376C0.280019 34 0 33.7198 0 33.3743V13.9696C0 13.776 0.0879507 13.6028 0.225968 13.4881L0.51416 13.2107Z" fill="#95CAFF"/>
</svg>
