<svg width="46" height="55" viewBox="0 0 46 55" fill="none" xmlns="http://www.w3.org/2000/svg">
<path d="M3.12675 51.0874H42.6209V3.12676H3.12675V51.0874ZM44.1843 54.2139H1.56338C0.699844 54.2139 7.62939e-06 53.514 7.62939e-06 52.6505V1.56339C7.62939e-06 0.699856 0.699844 2.28882e-05 1.56338 2.28882e-05H44.1843C45.0476 2.28882e-05 45.7477 0.699856 45.7477 1.56339V52.6505C45.7477 53.514 45.0476 54.2139 44.1843 54.2139Z" fill="#1E1D1C"/>
<path d="M44.1843 13.254H1.56336V10.1273H44.1843V13.254Z" fill="#1E1D1C"/>
<path d="M22.8737 20.5827C16.283 20.5827 10.921 25.9448 10.921 32.5355C10.921 39.1262 16.283 44.4883 22.8737 44.4883C29.4647 44.4883 34.8267 39.1262 34.8267 32.5355C34.8267 25.9448 29.4647 20.5827 22.8737 20.5827ZM22.8737 47.615C14.5589 47.615 7.79422 40.8503 7.79422 32.5355C7.79422 24.2207 14.5589 17.456 22.8737 17.456C31.1888 17.456 37.9532 24.2207 37.9532 32.5355C37.9532 40.8503 31.1888 47.615 22.8737 47.615Z" fill="#1E1D1C"/>
<path d="M22.8738 42.5931C18.8455 42.5931 15.2158 40.2008 13.6273 36.4981L15.064 35.8817C16.4058 39.0089 19.4713 41.0298 22.8738 41.0298C27.5575 41.0298 31.3681 37.2192 31.3681 32.5355C31.3681 27.8518 27.5575 24.0412 22.8738 24.0412C19.3632 24.0412 16.2611 26.1505 14.9709 29.4149L13.5169 28.8404C15.0446 24.9752 18.7173 22.4778 22.8738 22.4778C28.4196 22.4778 32.9314 26.9896 32.9314 32.5355C32.9314 38.0811 28.4196 42.5931 22.8738 42.5931Z" fill="#1E1D1C"/>
<path d="M15.1282 11.6906H13.5651V1.5634H15.1282V11.6906Z" fill="#1E1D1C"/>
<path d="M22.1766 8.19031H20.6391C19.7758 8.19031 19.0757 7.49046 19.0757 6.62693C19.0757 5.76362 19.7758 5.06379 20.6391 5.06379H22.1766C23.0402 5.06379 23.74 5.76362 23.74 6.62693C23.74 7.49046 23.0402 8.19031 22.1766 8.19031Z" fill="#1E1D1C"/>
<path d="M29.9542 8.19031H28.4169C27.5536 8.19031 26.8535 7.49046 26.8535 6.62693C26.8535 5.76362 27.5536 5.06379 28.4169 5.06379H29.9542C30.8177 5.06379 31.5176 5.76362 31.5176 6.62693C31.5176 7.49046 30.8177 8.19031 29.9542 8.19031Z" fill="#1E1D1C"/>
<path d="M37.7319 8.19031H36.1946C35.3313 8.19031 34.6312 7.49046 34.6312 6.62693C34.6312 5.76362 35.3313 5.06379 36.1946 5.06379H37.7319C38.5952 5.06379 39.2953 5.76362 39.2953 6.62693C39.2953 7.49046 38.5952 8.19031 37.7319 8.19031Z" fill="#1E1D1C"/>
<path d="M10.4927 38.74V37.1766C11.7244 37.1766 12.7546 36.6938 13.4718 35.7801C14.127 34.9452 14.5029 33.7616 14.5029 32.5327C14.5029 30.296 13.248 27.8888 10.4927 27.8888V26.3254C14.1517 26.3254 16.0663 29.448 16.0663 32.5327C16.0663 34.1283 15.5816 35.6244 14.7014 36.7454C13.6771 38.0502 12.2219 38.74 10.4927 38.74Z" fill="#1E1D1C"/>
</svg>
