<svg width="41" height="41" viewBox="0 0 41 41" fill="none" xmlns="http://www.w3.org/2000/svg">
<path d="M6.39122 16.9856H5.53296V16.1273H6.39122V16.9856Z" fill="#95CAFF"/>
<path d="M6.39122 20.4788H5.53296V18.7322H6.39122V20.4788ZM6.39122 23.9717H5.53296V22.2254H6.39122V23.9717ZM6.39122 27.4645H5.53296V25.7182H6.39122V27.4645ZM6.39122 30.9576H5.53296V29.2111H6.39122V30.9576ZM6.39122 34.4505H5.53296V32.7039H6.39122V34.4505ZM6.39122 37.9434H5.53296V36.1971H6.39122V37.9434Z" fill="#95CAFF"/>
<path d="M6.39122 40.5482H5.53296V39.69H6.39122V40.5482Z" fill="#95CAFF"/>
<path d="M13.7219 6.94043H12.8636V6.08216H13.7219V6.94043Z" fill="#95CAFF"/>
<path d="M13.7219 10.3879H12.8636V8.66426H13.7219V10.3879ZM13.7219 13.8353H12.8636V12.1116H13.7219V13.8353ZM13.7219 17.2824H12.8636V15.5587H13.7219V17.2824ZM13.7219 20.7298H12.8636V19.0061H13.7219V20.7298ZM13.7219 24.1768H12.8636V22.4534H13.7219V24.1768ZM13.7219 27.6242H12.8636V25.9005H13.7219V27.6242ZM13.7219 31.0716H12.8636V29.3479H13.7219V31.0716ZM13.7219 34.5189H12.8636V32.7953H13.7219V34.5189ZM13.7219 37.9663H12.8636V36.2426H13.7219V37.9663Z" fill="#95CAFF"/>
<path d="M13.7219 40.5482H12.8636V39.69H13.7219V40.5482Z" fill="#95CAFF"/>
<path d="M20.9731 16.9856H20.1149V16.1273H20.9731V16.9856Z" fill="#95CAFF"/>
<path d="M20.9731 20.4788H20.1149V18.7322H20.9731V20.4788ZM20.9731 23.9717H20.1149V22.2254H20.9731V23.9717ZM20.9731 27.4645H20.1149V25.7182H20.9731V27.4645ZM20.9731 30.9576H20.1149V29.2111H20.9731V30.9576ZM20.9731 34.4505H20.1149V32.7039H20.9731V34.4505ZM20.9731 37.9434H20.1149V36.1971H20.9731V37.9434Z" fill="#95CAFF"/>
<path d="M20.9731 40.5482H20.1149V39.69H20.9731V40.5482Z" fill="#95CAFF"/>
<path d="M28.3837 23.6669H27.5254V22.8086H28.3837V23.6669Z" fill="#95CAFF"/>
<path d="M28.3837 27.2276H27.5254V25.4472H28.3837V27.2276ZM28.3837 30.7882H27.5254V29.0079H28.3837V30.7882ZM28.3837 34.3489H27.5254V32.5686H28.3837V34.3489ZM28.3837 37.9095H27.5254V36.1292H28.3837V37.9095Z" fill="#95CAFF"/>
<path d="M28.3837 40.5482H27.5254V39.69H28.3837V40.5482Z" fill="#95CAFF"/>
<path d="M35.7145 14.0449H34.8562V13.1867H35.7145V14.0449Z" fill="#95CAFF"/>
<path d="M35.7145 17.4646H34.8562V15.7546H35.7145V17.4646ZM35.7145 20.8836H34.8562V19.1739H35.7145V20.8836ZM35.7145 24.3029H34.8562V22.5933H35.7145V24.3029ZM35.7145 27.7223H34.8562V26.0126H35.7145V27.7223ZM35.7145 31.1416H34.8562V29.4319H35.7145V31.1416ZM35.7145 34.5609H34.8562V32.8513H35.7145V34.5609ZM35.7145 37.98H34.8562V36.2706H35.7145V37.98Z" fill="#95CAFF"/>
<path d="M35.7145 40.5482H34.8562V39.69H35.7145V40.5482Z" fill="#95CAFF"/>
<path d="M40.9773 40.9773H0.429133C0.192252 40.9773 0 40.785 0 40.5482V-3.05176e-05H0.858266V40.119H40.9773V40.9773Z" fill="#95CAFF"/>
<path d="M0.847723 40.6429L0.0106201 40.4533L5.54358 16.0327C5.55646 15.9755 5.58106 15.9217 5.61539 15.8745L12.9461 5.8294C13.1078 5.60796 13.478 5.60796 13.6393 5.8294L20.9449 15.8393L27.8974 22.1759L34.944 12.9267C35.0253 12.8202 35.1515 12.7576 35.2853 12.7576H40.9774V13.6159H35.4979L28.2959 23.0688C28.223 23.1646 28.1131 23.2253 27.9932 23.2362C27.8745 23.2488 27.7546 23.207 27.6657 23.126L20.3346 16.4447C20.3132 16.4253 20.294 16.4038 20.2771 16.3803L13.2929 6.8101L6.36093 16.3088L0.847723 40.6429Z" fill="#95CAFF"/>
<path d="M27.9546 21.283C27.1118 21.283 26.4286 21.9662 26.4286 22.8087C26.4286 23.6515 27.1118 24.3347 27.9546 24.3347C28.7971 24.3347 29.4803 23.6515 29.4803 22.8087C29.4803 21.9662 28.7971 21.283 27.9546 21.283Z" fill="#95CAFF"/>
<path d="M27.9545 21.7121C27.3497 21.7121 26.8577 22.2039 26.8577 22.8087C26.8577 23.4135 27.3497 23.9055 27.9545 23.9055C28.5593 23.9055 29.0511 23.4135 29.0511 22.8087C29.0511 22.2039 28.5593 21.7121 27.9545 21.7121ZM27.9545 24.7638C26.8765 24.7638 25.9994 23.8867 25.9994 22.8087C25.9994 21.731 26.8765 20.8538 27.9545 20.8538C29.0325 20.8538 29.9094 21.731 29.9094 22.8087C29.9094 23.8867 29.0325 24.7638 27.9545 24.7638Z" fill="#95CAFF"/>
<path d="M13.2928 4.79485C12.45 4.79485 11.7671 5.47803 11.7671 6.32057C11.7671 7.16338 12.45 7.84656 13.2928 7.84656C14.1356 7.84656 14.8185 7.16338 14.8185 6.32057C14.8185 5.47803 14.1356 4.79485 13.2928 4.79485Z" fill="#95CAFF"/>
<path d="M13.2929 5.22397C12.6881 5.22397 12.1963 5.71604 12.1963 6.32055C12.1963 6.92534 12.6881 7.41712 13.2929 7.41712C13.8976 7.41712 14.3894 6.92534 14.3894 6.32055C14.3894 5.71604 13.8976 5.22397 13.2929 5.22397ZM13.2929 8.27539C12.2149 8.27539 11.338 7.39853 11.338 6.32055C11.338 5.24256 12.2149 4.3657 13.2929 4.3657C14.3708 4.3657 15.2477 5.24256 15.2477 6.32055C15.2477 7.39853 14.3708 8.27539 13.2929 8.27539Z" fill="#95CAFF"/>
<path d="M35.2854 11.6609C34.4428 11.6609 33.7596 12.3441 33.7596 13.1867C33.7596 14.0295 34.4428 14.7126 35.2854 14.7126C36.1282 14.7126 36.8114 14.0295 36.8114 13.1867C36.8114 12.3441 36.1282 11.6609 35.2854 11.6609Z" fill="#95CAFF"/>
<path d="M35.2853 12.0902C34.6808 12.0902 34.1887 12.5823 34.1887 13.1868C34.1887 13.7915 34.6808 14.2833 35.2853 14.2833C35.8901 14.2833 36.3822 13.7915 36.3822 13.1868C36.3822 12.5823 35.8901 12.0902 35.2853 12.0902ZM35.2853 15.1416C34.2073 15.1416 33.3304 14.2647 33.3304 13.1868C33.3304 12.1088 34.2073 11.2319 35.2853 11.2319C36.3633 11.2319 37.2404 12.1088 37.2404 13.1868C37.2404 14.2647 36.3633 15.1416 35.2853 15.1416Z" fill="#95CAFF"/>
<path d="M20.544 14.6016C19.7012 14.6016 19.0183 15.2848 19.0183 16.1273C19.0183 16.9701 19.7012 17.6533 20.544 17.6533C21.3865 17.6533 22.0697 16.9701 22.0697 16.1273C22.0697 15.2848 21.3865 14.6016 20.544 14.6016Z" fill="#95CAFF"/>
<path d="M20.544 15.0308C19.9392 15.0308 19.4471 15.5226 19.4471 16.1274C19.4471 16.7322 19.9392 17.2243 20.544 17.2243C21.1488 17.2243 21.6406 16.7322 21.6406 16.1274C21.6406 15.5226 21.1488 15.0308 20.544 15.0308ZM20.544 18.0825C19.466 18.0825 18.5889 17.2054 18.5889 16.1274C18.5889 15.0497 19.466 14.1725 20.544 14.1725C21.622 14.1725 22.4988 15.0497 22.4988 16.1274C22.4988 17.2054 21.622 18.0825 20.544 18.0825Z" fill="#95CAFF"/>
<path d="M5.96204 14.6016C5.11922 14.6016 4.43604 15.2848 4.43604 16.1273C4.43604 16.9701 5.11922 17.6533 5.96204 17.6533C6.80457 17.6533 7.48775 16.9701 7.48775 16.1273C7.48775 15.2848 6.80457 14.6016 5.96204 14.6016Z" fill="#95CAFF"/>
<path d="M5.9621 15.0308C5.35731 15.0308 4.86522 15.5226 4.86522 16.1274C4.86522 16.7322 5.35731 17.2243 5.9621 17.2243C6.56689 17.2243 7.05868 16.7322 7.05868 16.1274C7.05868 15.5226 6.56689 15.0308 5.9621 15.0308ZM5.9621 18.0825C4.88412 18.0825 4.00696 17.2054 4.00696 16.1274C4.00696 15.0497 4.88412 14.1725 5.9621 14.1725C7.03979 14.1725 7.91694 15.0497 7.91694 16.1274C7.91694 17.2054 7.03979 18.0825 5.9621 18.0825Z" fill="#95CAFF"/>
</svg>
