<svg width="54" height="88" viewBox="0 0 54 88" fill="none" xmlns="http://www.w3.org/2000/svg">
<path d="M4.81409 83.1359H49.1863V4.81373H4.81409V83.1359ZM51.5933 87.95H2.40704C1.07785 87.95 0 86.8724 0 85.5429V2.40669C0 1.07751 1.07785 7.62939e-06 2.40704 7.62939e-06H51.5933C52.9225 7.62939e-06 54 1.07751 54 2.40669V85.5429C54 86.8724 52.9225 87.95 51.5933 87.95Z" fill="#1E1D1C"/>
<path d="M51.5933 35.6965H2.407V30.8825H51.5933V35.6965Z" fill="#1E1D1C"/>
<path d="M17.3322 26.0128H9.86959C9.20499 26.0128 8.66608 25.4742 8.66608 24.8093C8.66608 24.1447 9.20499 23.6058 9.86959 23.6058H17.3322C17.9971 23.6058 18.5357 24.1447 18.5357 24.8093C18.5357 25.4742 17.9971 26.0128 17.3322 26.0128Z" fill="#1E1D1C"/>
<path d="M9.86959 51.6919C9.20499 51.6919 8.66608 51.1533 8.66608 50.4884V42.2573C8.66608 41.5927 9.20499 41.0538 9.86959 41.0538C10.5342 41.0538 11.0731 41.5927 11.0731 42.2573V50.4884C11.0731 51.1533 10.5342 51.6919 9.86959 51.6919Z" fill="#1E1D1C"/>
</svg>
