<svg width="38" height="38" viewBox="0 0 38 38" fill="none" xmlns="http://www.w3.org/2000/svg">
<path d="M19 10.3563C14.236 10.3563 10.3553 14.2337 10.3553 19C10.3553 23.7659 14.236 27.6433 19 27.6433C23.768 27.6433 27.6447 23.7659 27.6447 19C27.6447 14.2337 23.768 10.3563 19 10.3563ZM19 28.8423C13.5725 28.8423 9.15628 24.4269 9.15628 19C9.15628 13.5727 13.5725 9.1573 19 9.1573C24.4274 9.1573 28.8437 13.5727 28.8437 19C28.8437 24.4269 24.4274 28.8423 19 28.8423ZM11.818 31.0536C12.1817 31.0536 12.5534 31.1372 12.8971 31.3089C13.4367 31.5787 14.0042 31.8149 14.5757 32.0116C15.5828 32.3544 16.2583 33.2945 16.2583 34.3491V36.0217C16.2583 36.4513 16.61 36.801 17.0376 36.801H20.9624C21.394 36.801 21.7417 36.4513 21.7417 36.0217V34.3491C21.7417 33.2945 22.4171 32.3544 23.4243 32.0111C23.9998 31.8149 24.5633 31.5787 25.1028 31.3094C26.0341 30.8457 27.1491 31.0248 27.8765 31.7526L29.0995 32.9751C29.4032 33.2784 29.8988 33.2777 30.2025 32.9743L32.9762 30.2C33.28 29.8962 33.28 29.4018 32.9762 29.0982L31.7373 27.8603C31.0099 27.1342 30.83 26.0223 31.2896 25.0943C31.5574 24.5524 31.7932 23.9881 31.9851 23.4166C32.3208 22.4142 33.256 21.7416 34.3031 21.7416H36.0217C36.4533 21.7416 36.801 21.3919 36.801 20.9619V17.0381C36.801 16.6085 36.4533 16.2588 36.0217 16.2588H34.2711C33.228 16.2588 32.2968 15.5909 31.9571 14.597C31.7612 14.0347 31.5294 13.48 31.2657 12.9468C30.7981 12.0156 30.9779 10.8998 31.7053 10.1704L32.9762 8.90232C33.1241 8.75484 33.204 8.55941 33.204 8.35119C33.204 8.14297 33.1241 7.94754 32.9762 7.80087L30.2025 5.02486C29.8948 4.72112 29.4032 4.72192 29.0995 5.02486L27.8126 6.30935C27.0892 7.03513 25.9781 7.21497 25.0469 6.75657C24.5113 6.49279 23.9558 6.26259 23.3963 6.07196C22.4051 5.73705 21.7417 4.81424 21.7417 3.77674V1.97789C21.7417 1.54826 21.394 1.19897 20.9624 1.19897H17.0376C16.61 1.19897 16.2583 1.54826 16.2583 1.97789V3.77674C16.2583 4.81424 15.5948 5.73664 14.6037 6.07236C14.0442 6.26259 13.4886 6.49279 12.9531 6.75617C12.0259 7.21457 10.9108 7.03593 10.1874 6.30935L8.90048 5.02486C8.76459 4.88858 8.56479 4.81025 8.35297 4.81025C8.13715 4.81025 7.93729 4.88898 7.8014 5.02486L5.02374 7.80006C4.87986 7.94714 4.79596 8.14297 4.79596 8.35119C4.79596 8.55941 4.87986 8.75484 5.02374 8.90192L6.2947 10.17C7.02209 10.8994 7.20192 12.0152 6.73831 12.9464C6.47054 13.4816 6.23874 14.0363 6.0469 14.5962C5.70319 15.5905 4.77197 16.2588 3.72885 16.2588H1.97833C1.5467 16.2588 1.19899 16.6085 1.19899 17.0381V20.9619C1.19899 21.3919 1.5467 21.7416 1.97833 21.7416H3.69689C4.748 21.7416 5.67922 22.4143 6.01494 23.4162C6.21077 23.9873 6.44255 24.552 6.71033 25.0947C7.16994 26.0227 6.99008 27.1345 6.2627 27.8608L5.02374 29.0982C4.72 29.4018 4.72 29.8962 5.02374 30.2L7.8014 32.9748C7.93729 33.1114 8.13715 33.1898 8.35297 33.1898C8.56479 33.1898 8.76459 33.1114 8.90048 32.9748L10.1235 31.7526C10.5831 31.2942 11.1945 31.0536 11.818 31.0536ZM20.9624 38H17.0376C15.9466 38 15.0593 37.1123 15.0593 36.0217V34.3491C15.0593 33.8072 14.7116 33.3236 14.1881 33.1462C13.5646 32.9323 12.9491 32.6751 12.3616 32.382C11.894 32.1499 11.3345 32.2365 10.9708 32.6006L9.75179 33.8224C9.39209 34.1821 8.88052 34.3887 8.35297 34.3887C7.82141 34.3887 7.30985 34.1821 6.95415 33.822L4.17648 31.0476C3.40513 30.2762 3.40513 29.0213 4.17648 28.2505L5.41544 27.0126C5.77913 26.6503 5.86706 26.0927 5.63526 25.6255C5.3435 25.0356 5.0917 24.4209 4.87988 23.7995C4.70802 23.2855 4.23244 22.9406 3.69689 22.9406H1.97833C0.887253 22.9406 0 22.053 0 20.9619V17.0381C0 15.947 0.887253 15.0598 1.97833 15.0598H3.72885C4.26041 15.0598 4.73599 14.7165 4.91184 14.2065C5.11967 13.5975 5.37544 12.9936 5.6632 12.4117C5.899 11.9421 5.8111 11.3822 5.44741 11.0181L4.17648 9.74998C3.8048 9.37671 3.59697 8.87993 3.59697 8.35119C3.59697 7.82245 3.8048 7.32568 4.17648 6.9524L6.95415 4.1772C7.30985 3.81791 7.82139 3.61128 8.34895 3.61128H8.35297C8.88052 3.61128 9.39209 3.8175 9.75179 4.1772L11.0347 5.46169C11.3984 5.82417 11.9539 5.9125 12.4215 5.6815C13.005 5.39455 13.6085 5.14396 14.22 4.93694C14.7236 4.76629 15.0593 4.30029 15.0593 3.77674V1.97789C15.0593 0.887634 15.9466 0 17.0376 0H20.9624C22.0534 0 22.9407 0.887634 22.9407 1.97789V3.77674C22.9407 4.30029 23.2804 4.76629 23.78 4.93654C24.3915 5.14396 24.995 5.39455 25.5785 5.6815C26.0461 5.9125 26.6056 5.82417 26.9653 5.46169L28.2522 4.1772C29.0195 3.40626 30.2785 3.40666 31.0498 4.1768L33.8235 6.9528C34.1952 7.32568 34.403 7.82245 34.403 8.35119C34.403 8.87993 34.1952 9.37671 33.8235 9.75038L32.5526 11.0181C32.1889 11.3826 32.105 11.9425 32.3368 12.4121C32.6245 12.992 32.8803 13.5963 33.0881 14.2069C33.264 14.7165 33.7396 15.0598 34.2711 15.0598H36.0217C37.1127 15.0598 38 15.947 38 17.0381V20.9619C38 22.053 37.1127 22.9406 36.0217 22.9406H34.3031C33.7676 22.9406 33.2919 23.2859 33.1201 23.7999C32.9123 24.4217 32.6565 25.0364 32.3647 25.6255C32.1329 26.0923 32.2209 26.6503 32.5846 27.0126L33.8235 28.2505C34.5949 29.0213 34.5949 30.2762 33.8235 31.0476L31.0498 33.8224C30.2785 34.5929 29.0235 34.5934 28.2522 33.8231L27.0292 32.6003C26.6655 32.2365 26.106 32.1494 25.6384 32.3825C25.0509 32.6751 24.4354 32.9323 23.8119 33.1458C23.2924 33.3236 22.9407 33.8072 22.9407 34.3491V36.0217C22.9407 37.1123 22.0534 38 20.9624 38Z" fill="#95CAFF"/>
</svg>
