<svg width="93" height="55" viewBox="0 0 93 55" fill="none" xmlns="http://www.w3.org/2000/svg">
<path d="M67.7938 29.4099L46.3144 19.144C45.9884 18.9883 45.5989 19.0025 45.2865 19.1815C44.9739 19.3608 44.7831 19.6793 44.7831 20.0223V25.0915L29.2625 24.4477C28.7676 24.4294 28.3245 24.7326 28.1981 25.1814C28.0716 25.6296 28.2963 26.1003 28.7373 26.3111L50.2164 36.576C50.3675 36.6483 50.5315 36.6836 50.695 36.6836C50.8861 36.6836 51.0766 36.6352 51.245 36.5393C51.5575 36.3595 51.7473 36.0412 51.7473 35.6977V30.6288L67.2685 31.2731C67.7585 31.2894 68.2062 30.9881 68.3331 30.5396C68.4593 30.091 68.2347 29.6206 67.7938 29.4099Z" fill="#1E1D1C"/>
<path d="M91.1661 32.5192C87.3268 25.2069 76.2704 22.8025 73.4115 22.2946C72.015 20.1716 66.6874 12.9001 57.2374 9.43665C48.2325 6.13657 37.5971 6.28148 25.626 9.8672C19.4798 11.7078 14.4014 9.17426 13.122 8.44304L13.5977 7.71756C14.3819 6.52139 14.0479 4.91529 12.8516 4.13107L7.39967 0.55682L6.59484 1.78414L4.06766 0.127357C3.70825 -0.108219 3.22672 -0.00763702 2.99161 0.351154C2.75618 0.710098 2.85646 1.19179 3.2154 1.42706L5.74273 3.084L3.73057 6.15314L1.2034 4.49621C0.844297 4.26095 0.362591 4.36106 0.127387 4.71985C-0.10805 5.0788 -0.00780657 5.56064 0.351091 5.79591L2.87847 7.45285L2.07332 8.68063L7.52552 12.255C8.72184 13.0394 10.3278 12.7053 11.1122 11.5089L11.5565 10.831C13.0268 11.7096 18.9962 14.8281 26.4437 12.5968C37.8121 9.19146 47.8428 9.02842 56.2569 12.1121C66.1673 15.7442 71.2704 24.2344 71.3199 24.3181C71.5398 24.6927 71.9186 24.9466 72.3488 25.0075C72.4745 25.0254 84.9833 26.8732 88.6429 33.8437C90.4186 37.2257 90.2298 41.0595 89.9955 42.8954H87.2033C86.522 42.8954 85.9361 43.3781 85.805 44.0465C84.9903 48.2069 81.3171 51.2266 77.0713 51.2266C72.8254 51.2266 69.1524 48.2069 68.3374 44.0465C68.2062 43.3781 67.6206 42.8954 66.9394 42.8954H30.3614C29.6801 42.8954 29.0941 43.3781 28.9631 44.0465C28.1484 48.2069 24.4751 51.2266 20.2291 51.2266C15.9832 51.2266 12.31 48.2069 11.4951 44.0465C11.3643 43.3781 10.7783 42.8954 10.097 42.8954H7.31551C6.87396 41.1644 6.09594 37.4313 6.49177 33.8561C7.07482 28.5862 10.0612 24.8201 10.0913 24.7826C10.5851 24.1716 10.491 23.2761 9.88066 22.781C9.26956 22.2855 8.3722 22.3788 7.87671 22.9896C7.73258 23.1673 4.33795 27.4122 3.65943 33.5431C3.05732 38.9839 4.80213 44.5214 4.87684 44.7545C5.06561 45.3445 5.61425 45.745 6.23388 45.745H8.98532C10.4701 50.6364 15.0237 54.0762 20.2291 54.0762C25.4346 54.0762 29.9885 50.6364 31.4731 45.745H65.8279C67.3124 50.6364 71.866 54.0762 77.0713 54.0762C82.2768 54.0762 86.8299 50.6364 88.315 45.745H91.1997C91.859 45.745 92.4318 45.2927 92.5854 44.6517C92.6485 44.387 94.1009 38.1094 91.1661 32.5192Z" fill="#1E1D1C"/>
</svg>
